<svg width="35" height="38" viewBox="0 0 35 38" fill="none" xmlns="http://www.w3.org/2000/svg">
<path d="M10.5563 37.2875C9.68126 37.2875 8.93751 36.9667 8.32501 36.325C7.71251 35.6833 7.40626 34.9042 7.40626 33.9875C7.40626 33.0708 7.71251 32.2917 8.32501 31.65C8.93751 31.0083 9.68126 30.6875 10.5563 30.6875C11.4313 30.6875 12.175 31.0083 12.7875 31.65C13.4 32.2917 13.7063 33.0708 13.7063 33.9875C13.7063 34.9042 13.4 35.6833 12.7875 36.325C12.175 36.9667 11.4313 37.2875 10.5563 37.2875ZM28.0563 37.2875C27.1813 37.2875 26.4375 36.9667 25.825 36.325C25.2125 35.6833 24.9063 34.9042 24.9063 33.9875C24.9063 33.0708 25.2125 32.2917 25.825 31.65C26.4375 31.0083 27.1813 30.6875 28.0563 30.6875C28.9313 30.6875 29.675 31.0083 30.2875 31.65C30.9 32.2917 31.2063 33.0708 31.2063 33.9875C31.2063 34.9042 30.9 35.6833 30.2875 36.325C29.675 36.9667 28.9313 37.2875 28.0563 37.2875ZM8.28126 7.03749L13.0938 17.4875H25.6938L31.1625 7.03749H8.28126ZM6.96876 4.28749H32.7375C33.4083 4.28749 33.9188 4.60832 34.2688 5.24999C34.6188 5.89166 34.6188 6.53332 34.2688 7.17499L28.3625 18.3125C28.0417 18.893 27.6261 19.359 27.1156 19.7104C26.6052 20.0618 26.0438 20.2375 25.4313 20.2375H12.175L9.72501 25.0042H31.2063V27.7542H10.1188C8.89376 27.7542 8.01147 27.3264 7.47189 26.4708C6.9323 25.6153 6.9396 24.6528 7.49376 23.5833L10.2938 18.175L3.64376 3.41666H0.231262V0.666656H5.35001L6.96876 4.28749Z" fill="white"/>
</svg>
